<svg width="55" height="55" viewBox="0 0 55 55" fill="none" xmlns="http://www.w3.org/2000/svg">
<path d="M42.9688 29.2188L46.4063 29.2188C47.3555 29.2187 48.125 28.4492 48.125 27.5C48.125 26.5507 47.3555 25.7812 46.4062 25.7813L42.9687 25.7813C42.0195 25.7813 41.25 26.5508 41.25 27.5001C41.25 28.4493 42.0195 29.2188 42.9688 29.2188Z" fill="#EBFAFF"/>
<path d="M27.5 13.75C27.5 12.8008 28.2695 12.0312 29.2188 12.0313L46.4063 12.0313C47.3555 12.0313 48.125 12.8008 48.125 13.75C48.125 14.6993 47.3555 15.4688 46.4062 15.4688L29.2187 15.4688C28.2695 15.4687 27.5 14.6992 27.5 13.75Z" fill="#EBFAFF"/>
<path d="M27.5 41.25C27.5 40.3008 28.2695 39.5312 29.2188 39.5312L46.4063 39.5313C47.3555 39.5313 48.125 40.3008 48.125 41.25C48.125 42.1993 47.3555 42.9688 46.4062 42.9688L29.2187 42.9688C28.2695 42.9687 27.5 42.1992 27.5 41.25Z" fill="#EBFAFF"/>
<path d="M8.59377 15.4688L12.0313 15.4687C12.9805 15.4687 13.75 14.6992 13.75 13.75C13.75 12.8007 12.9805 12.0312 12.0312 12.0312L8.59373 12.0313C7.6445 12.0313 6.87499 12.8008 6.875 13.75C6.87501 14.6993 7.64453 15.4688 8.59377 15.4688Z" fill="#EBFAFF"/>
<path d="M12.0313 42.9688L8.59377 42.9688C7.64453 42.9688 6.87501 42.1993 6.875 41.25C6.87499 40.3008 7.6445 39.5313 8.59373 39.5313L12.0312 39.5312C12.9805 39.5312 13.75 40.3007 13.75 41.25C13.75 42.1992 12.9805 42.9687 12.0313 42.9688Z" fill="#EBFAFF"/>
<path d="M6.875 27.5C6.875 26.5508 7.64451 25.7812 8.59375 25.7812H25.7812C26.7305 25.7812 27.5 26.5508 27.5 27.5C27.5 28.4492 26.7305 29.2188 25.7812 29.2188H8.59375C7.64451 29.2188 6.875 28.4492 6.875 27.5Z" fill="#EBFAFF"/>
<path d="M20.625 8.59375C17.7773 8.59375 15.4688 10.9023 15.4688 13.75C15.4688 16.5977 17.7773 18.9062 20.625 18.9062C23.4727 18.9062 25.7813 16.5977 25.7813 13.75C25.7813 10.9023 23.4727 8.59375 20.625 8.59375Z" fill="#EBFAFF"/>
<path d="M29.2188 27.5C29.2188 24.6523 31.5273 22.3438 34.375 22.3438C37.2227 22.3438 39.5312 24.6523 39.5312 27.5C39.5312 30.3477 37.2227 32.6562 34.375 32.6562C31.5273 32.6562 29.2188 30.3477 29.2188 27.5Z" fill="#EBFAFF"/>
<path d="M20.625 36.0938C17.7773 36.0938 15.4688 38.4023 15.4688 41.25C15.4688 44.0977 17.7773 46.4062 20.625 46.4062C23.4727 46.4062 25.7812 44.0977 25.7812 41.25C25.7812 38.4023 23.4727 36.0938 20.625 36.0938Z" fill="#EBFAFF"/>
</svg>
