<svg width="55" height="55" viewBox="0 0 55 55" fill="none" xmlns="http://www.w3.org/2000/svg">
<path d="M7.73438 6.875C5.36128 6.875 3.4375 8.79878 3.4375 11.1719V12.8906C3.4375 15.2637 5.36127 17.1875 7.73437 17.1875H47.2656C49.6387 17.1875 51.5625 15.2637 51.5625 12.8906V11.1719C51.5625 8.79878 49.6387 6.875 47.2656 6.875H7.73438Z" fill="#EBFAFF"/>
<path fill-rule="evenodd" clip-rule="evenodd" d="M7.0739 20.625L8.31088 41.6537C8.52464 45.2876 11.5339 48.125 15.174 48.125H39.8253C43.4655 48.125 46.4747 45.2876 46.6884 41.6537L47.9254 20.625H7.0739ZM27.5 24.0625C28.4492 24.0625 29.2188 24.832 29.2188 25.7812V37.1006L33.1597 33.1597C33.8309 32.4884 34.9191 32.4884 35.5903 33.1597C36.2616 33.8309 36.2616 34.9191 35.5903 35.5903L28.7153 42.4653C28.0441 43.1366 26.9559 43.1366 26.2847 42.4653L19.4097 35.5903C18.7384 34.9191 18.7384 33.8309 19.4097 33.1597C20.0809 32.4884 21.1691 32.4884 21.8403 33.1597L25.7812 37.1006V25.7812C25.7812 24.832 26.5508 24.0625 27.5 24.0625Z" fill="#EBFAFF"/>
</svg>
