<svg width="55" height="55" viewBox="0 0 55 55" fill="none" xmlns="http://www.w3.org/2000/svg">
<path fill-rule="evenodd" clip-rule="evenodd" d="M36.0938 5.15625L48.125 5.15625C48.5808 5.15625 49.018 5.33733 49.3403 5.65966C49.6627 5.98199 49.8438 6.41916 49.8438 6.875V18.9062C49.8438 19.8555 49.0742 20.625 48.125 20.625C47.1758 20.625 46.4062 19.8555 46.4062 18.9062V11.0244L18.4028 39.0278C17.7316 39.6991 16.6434 39.6991 15.9722 39.0278C15.3009 38.3566 15.3009 37.2684 15.9722 36.5972L43.9756 8.59375L36.0938 8.59375C35.1445 8.59375 34.375 7.82424 34.375 6.875C34.375 5.92576 35.1445 5.15625 36.0938 5.15625ZM12.0312 15.4688C10.1328 15.4688 8.59375 17.0078 8.59375 18.9062V42.9688C8.59375 44.8672 10.1328 46.4062 12.0312 46.4062H36.0938C37.9922 46.4062 39.5312 44.8672 39.5312 42.9688V24.0625C39.5312 23.1133 40.3008 22.3438 41.25 22.3438C42.1992 22.3438 42.9688 23.1133 42.9688 24.0625V42.9688C42.9688 46.7657 39.8907 49.8438 36.0938 49.8438H12.0312C8.23429 49.8438 5.15625 46.7657 5.15625 42.9688V18.9062C5.15625 15.1093 8.23429 12.0313 12.0312 12.0313H30.9375C31.8867 12.0313 32.6562 12.8008 32.6562 13.75C32.6562 14.6992 31.8867 15.4688 30.9375 15.4688H12.0312Z" fill="#EBFAFF"/>
</svg>
