<svg width="55" height="55" viewBox="0 0 55 55" fill="none" xmlns="http://www.w3.org/2000/svg">
<path fill-rule="evenodd" clip-rule="evenodd" d="M34.375 8.59375C34.375 7.64451 35.1445 6.875 36.0938 6.875L46.4062 6.875C47.3555 6.875 48.125 7.64451 48.125 8.59375V18.9063C48.125 19.8555 47.3555 20.625 46.4062 20.625C45.457 20.625 44.6875 19.8555 44.6875 18.9063V12.7432L35.5903 21.8403C34.9191 22.5116 33.8309 22.5116 33.1597 21.8403C32.4884 21.1691 32.4884 20.0809 33.1597 19.4097L42.2568 10.3125H36.0938C35.1445 10.3125 34.375 9.54299 34.375 8.59375ZM6.875 8.59375C6.875 7.64451 7.64451 6.875 8.59375 6.875H18.9062C19.8555 6.875 20.625 7.64451 20.625 8.59375C20.625 9.54299 19.8555 10.3125 18.9062 10.3125H12.7432L21.8403 19.4097C22.5116 20.0809 22.5116 21.1691 21.8403 21.8403C21.1691 22.5116 20.0809 22.5116 19.4097 21.8403L10.3125 12.7432V18.9063C10.3125 19.8555 9.54299 20.625 8.59375 20.625C7.64451 20.625 6.875 19.8555 6.875 18.9063V8.59375ZM33.1597 35.5903C32.4884 34.9191 32.4884 33.8309 33.1597 33.1597C33.8309 32.4884 34.9191 32.4884 35.5903 33.1597L44.6875 42.2568V36.0938C44.6875 35.1445 45.457 34.375 46.4062 34.375C47.3555 34.375 48.125 35.1445 48.125 36.0938V46.4062C48.125 47.3555 47.3555 48.125 46.4062 48.125H36.0938C35.1445 48.125 34.375 47.3555 34.375 46.4062C34.375 45.457 35.1445 44.6875 36.0938 44.6875H42.2568L33.1597 35.5903ZM21.8403 33.1597C22.5116 33.8309 22.5116 34.9191 21.8403 35.5903L12.7432 44.6875H18.9062C19.8555 44.6875 20.625 45.457 20.625 46.4062C20.625 47.3555 19.8555 48.125 18.9062 48.125H8.59375C7.64451 48.125 6.875 47.3555 6.875 46.4062V36.0938C6.875 35.1445 7.64451 34.375 8.59375 34.375C9.54299 34.375 10.3125 35.1445 10.3125 36.0938V42.2568L19.4097 33.1597C20.0809 32.4884 21.1691 32.4884 21.8403 33.1597Z" fill="#EBFAFF"/>
</svg>
