<svg width="55" height="55" viewBox="0 0 55 55" fill="none" xmlns="http://www.w3.org/2000/svg">
<path fill-rule="evenodd" clip-rule="evenodd" d="M7.37841 7.37841C8.04963 6.7072 9.13788 6.7072 9.80909 7.37841L18.9063 16.4756L18.9063 10.3125C18.9063 9.36326 19.6758 8.59375 20.625 8.59375C21.5742 8.59375 22.3438 9.36326 22.3438 10.3125L22.3438 20.625C22.3438 21.5742 21.5742 22.3438 20.625 22.3438H10.3125C9.36326 22.3438 8.59375 21.5742 8.59375 20.625C8.59375 19.6758 9.36326 18.9062 10.3125 18.9062L16.4756 18.9063L7.37841 9.80909C6.7072 9.13788 6.7072 8.04962 7.37841 7.37841ZM47.6216 7.37841C48.2928 8.04962 48.2928 9.13788 47.6216 9.80909L38.5244 18.9063H44.6875C45.6367 18.9063 46.4062 19.6758 46.4062 20.625C46.4062 21.5742 45.6367 22.3438 44.6875 22.3438H34.375C33.4258 22.3438 32.6563 21.5742 32.6563 20.625V10.3125C32.6563 9.36326 33.4258 8.59375 34.375 8.59375C35.3242 8.59375 36.0938 9.36326 36.0938 10.3125V16.4756L45.1909 7.37841C45.8621 6.7072 46.9504 6.7072 47.6216 7.37841ZM8.59375 34.375C8.59375 33.4258 9.36326 32.6562 10.3125 32.6562L20.625 32.6563C21.5742 32.6563 22.3438 33.4258 22.3438 34.375V44.6875C22.3438 45.6367 21.5742 46.4062 20.625 46.4062C19.6758 46.4062 18.9062 45.6367 18.9062 44.6875L18.9063 38.5244L9.80909 47.6216C9.13788 48.2928 8.04962 48.2928 7.37841 47.6216C6.7072 46.9504 6.7072 45.8621 7.37841 45.1909L16.4756 36.0938H10.3125C9.36326 36.0938 8.59375 35.3242 8.59375 34.375ZM32.6563 34.375C32.6563 33.4258 33.4258 32.6563 34.375 32.6563H44.6875C45.6367 32.6563 46.4062 33.4258 46.4062 34.375C46.4062 35.3242 45.6367 36.0938 44.6875 36.0938H38.5244L47.6216 45.1909C48.2928 45.8621 48.2928 46.9504 47.6216 47.6216C46.9504 48.2928 45.8621 48.2928 45.1909 47.6216L36.0938 38.5244V44.6875C36.0938 45.6367 35.3242 46.4062 34.375 46.4062C33.4258 46.4062 32.6562 45.6367 32.6562 44.6875L32.6563 34.375Z" fill="#EBFAFF"/>
</svg>
