<svg width="55" height="55" viewBox="0 0 55 55" fill="none" xmlns="http://www.w3.org/2000/svg">
<path fill-rule="evenodd" clip-rule="evenodd" d="M5.76341 24.4617C4.08538 26.1397 4.08537 28.8603 5.76341 30.5383L20.3728 45.1477C21.1786 45.9535 22.2715 46.4062 23.4111 46.4062H44.687C48.4839 46.4062 51.562 43.3282 51.562 39.5312V15.4688C51.562 11.6718 48.4839 8.59375 44.687 8.59375L23.4111 8.59375C22.2715 8.59375 21.1786 9.04645 20.3728 9.85228L5.76341 24.4617ZM28.7152 21.1284C28.044 20.4572 26.9558 20.4572 26.2845 21.1284C25.6133 21.7996 25.6133 22.8879 26.2845 23.5591L30.2255 27.5L26.2845 31.4409C25.6133 32.1121 25.6133 33.2004 26.2845 33.8716C26.9558 34.5428 28.044 34.5428 28.7152 33.8716L32.6561 29.9307L36.597 33.8716C37.2683 34.5428 38.3565 34.5428 39.0277 33.8716C39.6989 33.2004 39.6989 32.1121 39.0277 31.4409L35.0868 27.5L39.0277 23.5591C39.6989 22.8879 39.6989 21.7996 39.0277 21.1284C38.3565 20.4572 37.2683 20.4572 36.597 21.1284L32.6561 25.0693L28.7152 21.1284Z" fill="#EBFAFF"/>
</svg>
