<svg width="55" height="55" viewBox="0 0 55 55" fill="none" xmlns="http://www.w3.org/2000/svg">
<path fill-rule="evenodd" clip-rule="evenodd" d="M11.1108 6.35022C16.4611 5.56354 21.9338 5.15625 27.5007 5.15625C33.067 5.15625 38.5392 5.56347 43.8891 6.35001C48.4228 7.01656 51.5625 10.9873 51.5625 15.4471V29.2404C51.5625 33.7003 48.4227 37.671 43.889 38.3375C41.2624 38.7237 38.6063 39.0184 35.9239 39.2184C35.6387 39.2397 35.3904 39.388 35.2436 39.6081L28.9301 49.0784C28.6113 49.5565 28.0747 49.8438 27.5 49.8438C26.9253 49.8438 26.3887 49.5565 26.0699 49.0784L19.7563 39.6079C19.6096 39.3879 19.3612 39.2395 19.076 39.2183C16.3936 39.0182 13.7374 38.7235 11.1108 38.3372C6.57717 37.6706 3.4375 33.7 3.4375 29.2402V15.4473C3.4375 10.9875 6.57719 7.01682 11.1108 6.35022ZM15.4688 18.9062C15.4688 17.957 16.2383 17.1875 17.1875 17.1875H37.8125C38.7617 17.1875 39.5312 17.957 39.5312 18.9062C39.5312 19.8555 38.7617 20.625 37.8125 20.625H17.1875C16.2383 20.625 15.4688 19.8555 15.4688 18.9062ZM17.1875 24.0625C16.2383 24.0625 15.4688 24.832 15.4688 25.7812C15.4688 26.7305 16.2383 27.5 17.1875 27.5H27.5C28.4492 27.5 29.2188 26.7305 29.2188 25.7812C29.2188 24.832 28.4492 24.0625 27.5 24.0625H17.1875Z" fill="#EBFAFF"/>
</svg>
