<svg width="55" height="55" viewBox="0 0 55 55" fill="none" xmlns="http://www.w3.org/2000/svg">
<path d="M38.967 23.8488C39.2842 24.8458 38.4727 25.7795 37.4266 25.7795H29.486C28.872 25.7795 28.3046 25.4519 27.9976 24.9202L24.0267 18.0431C23.5033 17.1365 23.9066 15.9665 24.9295 15.7439C25.7577 15.5637 26.6176 15.4688 27.4998 15.4688C32.8716 15.4688 37.4211 18.9892 38.967 23.8488Z" fill="#EBFAFF"/>
<path d="M18.6067 19.3966C19.3123 18.6227 20.5278 18.8579 21.0515 19.7648L25.0206 26.6389C25.3276 27.1707 25.3277 27.8259 25.0206 28.3577L21.0505 35.2341C20.5268 36.1412 19.3112 36.3764 18.6056 35.6023C16.6568 33.4642 15.4685 30.6209 15.4685 27.5C15.4685 24.3786 16.6573 21.5347 18.6067 19.3966Z" fill="#EBFAFF"/>
<path d="M24.928 39.2558C23.9052 39.0331 23.5019 37.8632 24.0253 36.9567L27.9976 30.0764C28.3046 29.5446 28.8721 29.217 29.4861 29.217H37.4277C38.4736 29.217 39.285 30.1504 38.9683 31.1472C37.4235 36.0089 32.873 39.5313 27.4998 39.5313C26.6171 39.5313 25.7566 39.4362 24.928 39.2558Z" fill="#EBFAFF"/>
<path fill-rule="evenodd" clip-rule="evenodd" d="M48.1265 29.217C49.0757 29.217 49.8452 28.4475 49.8452 27.4983C49.8452 26.549 49.0757 25.7795 48.1265 25.7795H46.3306C46.2348 24.7158 46.0508 23.6776 45.7862 22.6721L47.47 22.0592C48.362 21.7345 48.8219 20.7482 48.4973 19.8562C48.1726 18.9643 47.1863 18.5043 46.2943 18.829L44.6103 19.4419C44.159 18.4853 43.6299 17.5727 43.0311 16.7122L44.4056 15.5588C45.1328 14.9487 45.2276 13.8646 44.6175 13.1374C44.0073 12.4102 42.9232 12.3154 42.196 12.9255L40.8204 14.0799C40.074 13.339 39.2662 12.66 38.4053 12.0512L39.3022 10.4976C39.7768 9.67557 39.4952 8.6244 38.6731 8.14978C37.8511 7.67516 36.7999 7.95682 36.3253 8.77888L35.4299 10.3297C34.4813 9.89093 33.4902 9.52844 32.4645 9.25013L32.7754 7.48673C32.9402 6.55192 32.316 5.66047 31.3812 5.49564C30.4464 5.3308 29.5549 5.955 29.3901 6.88982L29.0785 8.65685C28.5585 8.6139 28.0326 8.59201 27.5015 8.59201C26.9703 8.59201 26.4442 8.61394 25.924 8.65697L25.6124 6.88991C25.4476 5.95509 24.5561 5.3309 23.6213 5.49573C22.6865 5.66057 22.0623 6.55201 22.2271 7.48683L22.5381 9.25067C21.5128 9.52897 20.5218 9.89139 19.5732 10.3301L18.6773 8.77847C18.2026 7.95642 17.1515 7.6748 16.3294 8.14945C15.5074 8.62411 15.2257 9.67529 15.7004 10.4973L16.5977 12.0514C15.7372 12.6599 14.9296 13.3387 14.1834 14.0794L12.8066 12.9241C12.0795 12.314 10.9954 12.4088 10.3852 13.136C9.77505 13.8631 9.8699 14.9472 10.5971 15.5574L11.9726 16.7116C11.3735 17.5724 10.8442 18.4854 10.3927 19.4424L8.70825 18.8294C7.81626 18.5047 6.82996 18.9646 6.5053 19.8566C6.18065 20.7486 6.64056 21.7349 7.53256 22.0595L9.21677 22.6725C8.95212 23.6779 8.76817 24.716 8.67231 25.7795H6.87646C5.92723 25.7795 5.15771 26.549 5.15771 27.4983C5.15771 28.4475 5.92723 29.217 6.87646 29.217H8.67229C8.76813 30.2806 8.95205 31.3187 9.2167 32.3241L7.53199 32.9373C6.63999 33.262 6.18008 34.2483 6.50474 35.1403C6.8294 36.0323 7.81569 36.4922 8.70768 36.1675L10.3925 35.5543C10.8441 36.5115 11.3736 37.4248 11.9728 38.2858L10.5967 39.4405C9.86955 40.0507 9.7747 41.1348 10.3849 41.862C10.995 42.5891 12.0791 42.684 12.8063 42.0738L14.1838 40.9179C14.9302 41.6586 15.7379 42.3374 16.5988 42.9461L15.7003 44.5024C15.2256 45.3245 15.5073 46.3757 16.3294 46.8503C17.1514 47.3249 18.2026 47.0433 18.6772 46.2212L19.5743 44.6674C20.5226 45.1059 21.5133 45.4682 22.5386 45.7464L22.2271 47.5131C22.0623 48.448 22.6865 49.3394 23.6213 49.5042C24.5561 49.6691 25.4476 49.0449 25.6124 48.1101L25.9246 46.3397C26.4445 46.3826 26.9704 46.4045 27.5015 46.4045C28.0324 46.4045 28.5581 46.3826 29.0779 46.3397L29.3901 48.1102C29.555 49.045 30.4464 49.6692 31.3812 49.5043C32.316 49.3395 32.9402 48.4481 32.7754 47.5132L32.4639 45.7465C33.4893 45.4683 34.4802 45.106 35.4285 44.6674L36.3254 46.2208C36.8 47.0429 37.8511 47.3246 38.6732 46.8499C39.4953 46.3753 39.7769 45.3241 39.3023 44.5021L38.404 42.9462C39.2652 42.3373 40.0732 41.6582 40.8198 40.9173L42.1964 42.0724C42.9235 42.6826 44.0077 42.5877 44.6178 41.8605C45.228 41.1334 45.1331 40.0493 44.406 39.4391L43.0306 38.2851C43.6296 37.4244 44.1588 36.5115 44.6102 35.5547L46.2949 36.1679C47.1869 36.4925 48.1732 36.0326 48.4978 35.1406C48.8225 34.2486 48.3626 33.2623 47.4706 32.9377L45.7861 32.3246C46.0508 31.319 46.2348 30.2807 46.3306 29.217H48.1265ZM42.0369 22.2076C42.023 22.1695 42.0106 22.1313 41.9995 22.0929C41.3858 20.4473 40.4999 18.9344 39.3966 17.6088C39.3811 17.5918 39.3659 17.5744 39.3509 17.5566C39.3363 17.5391 39.3221 17.5215 39.3083 17.5037C38.1848 16.1778 36.842 15.0437 35.3358 14.1573C35.3021 14.1406 35.2687 14.1228 35.2356 14.1037C35.2017 14.0841 35.1686 14.0635 35.1365 14.042C33.6602 13.2025 32.0322 12.599 30.3038 12.2827C30.2651 12.2785 30.2263 12.2731 30.1874 12.2662C30.1497 12.2595 30.1125 12.2517 30.0759 12.2428C29.2386 12.1025 28.3786 12.0295 27.5015 12.0295C26.6251 12.0295 25.7662 12.1022 24.9303 12.242C24.8925 12.2513 24.8541 12.2594 24.8151 12.2663C24.7749 12.2734 24.7347 12.279 24.6946 12.2832C22.9279 12.6068 21.2675 13.2304 19.7665 14.0989C18.213 14.9979 16.8308 16.1586 15.6801 17.5205C15.6708 17.5321 15.6614 17.5437 15.6518 17.5551C15.6469 17.561 15.642 17.5667 15.637 17.5725C15.6319 17.5785 15.6267 17.5844 15.6214 17.5903C14.5106 18.9208 13.6193 20.4404 13.0029 22.0937C12.9919 22.1319 12.9795 22.17 12.9657 22.208C12.9519 22.246 12.9369 22.2831 12.9207 22.3195C12.3456 23.9388 12.0327 25.6821 12.0327 27.4983C12.0327 29.3187 12.3472 31.0656 12.9247 32.6878C12.9391 32.7208 12.9526 32.7545 12.9651 32.7889C12.9776 32.8232 12.9889 32.8576 12.9991 32.8921C14.2539 36.2645 16.6513 39.0809 19.7208 40.8707C19.7295 40.8754 19.7382 40.8801 19.7468 40.885C19.7535 40.8887 19.7602 40.8925 19.7669 40.8964C19.7829 40.9056 19.7988 40.9152 19.8145 40.9249C21.3221 41.7899 22.9894 42.4083 24.7611 42.725C24.7791 42.7276 24.7971 42.7305 24.8151 42.7337C24.8319 42.7366 24.8486 42.7398 24.8652 42.7433C25.7219 42.8904 26.6028 42.967 27.5015 42.967C28.4003 42.967 29.2812 42.8904 30.138 42.7432C30.1544 42.7398 30.1708 42.7367 30.1874 42.7338C30.2052 42.7306 30.223 42.7278 30.2408 42.7252C32.0086 42.4093 33.6724 41.7931 35.1775 40.9311C35.1966 40.9191 35.216 40.9074 35.2357 40.896C35.2546 40.8851 35.2736 40.8746 35.2928 40.8645C36.8268 39.9683 38.1927 38.8156 39.3316 37.4653L39.3513 37.4414L39.3724 37.4166C40.4888 36.082 41.3842 34.5562 42.0025 32.8955C42.013 32.86 42.0246 32.8245 42.0374 32.7892C42.0503 32.7538 42.0642 32.7191 42.0792 32.6851C42.6561 31.0637 42.9702 29.3177 42.9702 27.4983C42.9702 25.682 42.6572 23.9388 42.0821 22.3198C42.0659 22.2832 42.0508 22.2458 42.0369 22.2076Z" fill="#EBFAFF"/>
</svg>
