<svg width="55" height="55" viewBox="0 0 55 55" fill="none" xmlns="http://www.w3.org/2000/svg">
<path fill-rule="evenodd" clip-rule="evenodd" d="M5.15625 12.0312C5.15625 8.23429 8.23429 5.15625 12.0312 5.15625H42.9688C46.7657 5.15625 49.8438 8.23429 49.8438 12.0312V34.375C49.8438 38.172 46.7657 41.25 42.9688 41.25H36.0938V41.8398C36.0938 43.2073 36.637 44.5188 37.604 45.4858L39.0278 46.9097C39.5194 47.4012 39.6664 48.1405 39.4004 48.7827C39.1344 49.425 38.5077 49.8438 37.8125 49.8438H17.1875C16.4923 49.8438 15.8656 49.425 15.5996 48.7827C15.3336 48.1405 15.4806 47.4012 15.9722 46.9097L17.396 45.4858C18.363 44.5188 18.9062 43.2073 18.9062 41.8398V41.25H12.0312C8.23429 41.25 5.15625 38.172 5.15625 34.375V12.0312ZM8.59375 12.0312V29.2188C8.59375 31.1172 10.1328 32.6562 12.0312 32.6562H42.9688C44.8672 32.6562 46.4062 31.1172 46.4062 29.2188V12.0312C46.4062 10.1328 44.8672 8.59375 42.9688 8.59375H12.0312C10.1328 8.59375 8.59375 10.1328 8.59375 12.0312Z" fill="#EBFAFF"/>
</svg>
