<svg width="55" height="55" viewBox="0 0 55 55" fill="none" xmlns="http://www.w3.org/2000/svg">
<path d="M10.3125 8.59375C6.51554 8.59375 3.4375 11.6718 3.4375 15.4687V17.1875H51.5625V15.4688C51.5625 11.6718 48.4845 8.59375 44.6875 8.59375H10.3125Z" fill="#EBFAFF"/>
<path fill-rule="evenodd" clip-rule="evenodd" d="M51.5625 22.3438H3.4375V39.5312C3.4375 43.3282 6.51554 46.4062 10.3125 46.4062H44.6875C48.4845 46.4062 51.5625 43.3282 51.5625 39.5312V22.3438ZM10.3125 30.9375C10.3125 29.9883 11.082 29.2188 12.0312 29.2188H25.7812C26.7305 29.2188 27.5 29.9883 27.5 30.9375C27.5 31.8867 26.7305 32.6562 25.7812 32.6562H12.0312C11.082 32.6562 10.3125 31.8867 10.3125 30.9375ZM12.0312 36.0938C11.082 36.0938 10.3125 36.8633 10.3125 37.8125C10.3125 38.7617 11.082 39.5312 12.0312 39.5312H18.9062C19.8555 39.5312 20.625 38.7617 20.625 37.8125C20.625 36.8633 19.8555 36.0938 18.9062 36.0938H12.0312Z" fill="#EBFAFF"/>
</svg>
