<svg width="55" height="55" viewBox="0 0 55 55" fill="none" xmlns="http://www.w3.org/2000/svg">
<path d="M24.0625 42.9688C23.1133 42.9688 22.3438 43.7383 22.3438 44.6875C22.3438 45.6367 23.1133 46.4062 24.0625 46.4062H30.9375C31.8867 46.4062 32.6562 45.6367 32.6562 44.6875C32.6562 43.7383 31.8867 42.9688 30.9375 42.9688H24.0625Z" fill="#EBFAFF"/>
<path fill-rule="evenodd" clip-rule="evenodd" d="M19.7656 1.71875C15.494 1.71875 12.0312 5.18155 12.0312 9.45312V45.5469C12.0312 49.8185 15.494 53.2812 19.7656 53.2812H35.2344C39.506 53.2812 42.9688 49.8185 42.9688 45.5469V9.45312C42.9688 5.18155 39.506 1.71875 35.2344 1.71875H19.7656ZM17.1875 9.45312C17.1875 8.02927 18.3418 6.875 19.7656 6.875H22.3438V7.73438C22.3438 9.15823 23.498 10.3125 24.9219 10.3125H30.0781C31.502 10.3125 32.6562 9.15823 32.6562 7.73438V6.875H35.2344C36.6582 6.875 37.8125 8.02927 37.8125 9.45312V45.5469C37.8125 46.9707 36.6582 48.125 35.2344 48.125H19.7656C18.3418 48.125 17.1875 46.9707 17.1875 45.5469V9.45312Z" fill="#EBFAFF"/>
</svg>
