<svg width="56" height="56" viewBox="0 0 56 56" fill="none" xmlns="http://www.w3.org/2000/svg">
<path d="M12.3481 24.6279C12.3356 23.6788 11.556 22.9195 10.6068 22.932C9.65766 22.9446 8.89838 23.7242 8.91092 24.6733L9.00171 31.5477C9.01425 32.4969 9.79385 33.2562 10.743 33.2436C11.6922 33.2311 12.4514 32.4515 12.4389 31.5023L12.3481 24.6279Z" fill="#EBFAFF"/>
<path fill-rule="evenodd" clip-rule="evenodd" d="M53.5378 19.7867C53.4814 15.5155 49.9731 12.0987 45.7019 12.1551L9.61133 12.6318C5.34013 12.6882 1.92336 16.1964 1.97977 20.4676L2.18406 35.935C2.24047 40.2062 5.74869 43.623 10.0199 43.5666L46.1105 43.0899C50.3817 43.0335 53.7985 39.5253 53.7421 35.2541L53.5378 19.7867ZM45.77 17.3109C47.1938 17.2921 48.3632 18.431 48.382 19.8548L48.416 22.4327L47.5567 22.444C46.133 22.4628 44.9941 23.6322 45.0129 25.056L45.081 30.2118C45.0998 31.6355 46.2692 32.7744 47.6929 32.7556L48.5522 32.7443L48.5863 35.3222C48.6051 36.7459 47.4661 37.9153 46.0424 37.9341L9.9518 38.4108C8.52807 38.4296 7.35866 37.2907 7.33986 35.8669L7.13557 20.3995C7.11677 18.9758 8.25569 17.8064 9.67943 17.7876L45.77 17.3109Z" fill="#EBFAFF"/>
</svg>
