<svg width="55" height="55" viewBox="0 0 55 55" fill="none" xmlns="http://www.w3.org/2000/svg">
<path d="M8.08997 5.65966C7.41876 4.98845 6.33051 4.98845 5.65929 5.65966C4.98808 6.33087 4.98808 7.41913 5.65929 8.09034L46.9093 49.3403C47.5805 50.0116 48.6688 50.0116 49.34 49.3403C50.0112 48.6691 50.0112 47.5809 49.34 46.9097L8.08997 5.65966Z" fill="#EBFAFF"/>
<path d="M51.9652 28.768C50.7185 32.5158 48.6348 35.8817 45.9354 38.6438L38.8347 31.543C39.2854 30.2795 39.5309 28.9184 39.5309 27.5C39.5309 20.8553 34.1443 15.4688 27.4996 15.4688C26.0812 15.4688 24.7202 15.7142 23.4566 16.1649L17.7806 10.4889C20.7801 9.26707 24.0616 8.59375 27.5008 8.59375C38.8911 8.59375 48.5519 15.9791 51.9644 26.2177C52.2402 27.0451 52.2405 27.9404 51.9652 28.768Z" fill="#EBFAFF"/>
<path d="M36.0934 27.5C36.0934 27.9129 36.0643 28.319 36.008 28.7163L26.2833 18.9917C26.6807 18.9354 27.0868 18.9062 27.4996 18.9062C32.2458 18.9062 36.0934 22.7538 36.0934 27.5Z" fill="#EBFAFF"/>
<path d="M28.7159 36.0083L18.9913 26.2837C18.935 26.681 18.9059 27.0871 18.9059 27.5C18.9059 32.2462 22.7534 36.0938 27.4996 36.0938C27.9125 36.0938 28.3186 36.0646 28.7159 36.0083Z" fill="#EBFAFF"/>
<path d="M15.4684 27.5C15.4684 26.0816 15.7138 24.7205 16.1646 23.457L9.063 16.3554C6.36328 19.1176 4.27926 22.4839 3.03245 26.232C2.75716 27.0596 2.75742 27.9549 3.0332 28.7823C6.44572 39.0209 16.1066 46.4062 27.4968 46.4062C30.9365 46.4062 34.2184 45.7328 37.2182 44.5106L31.5427 38.8351C30.2791 39.2858 28.918 39.5312 27.4996 39.5312C20.855 39.5312 15.4684 34.1447 15.4684 27.5Z" fill="#EBFAFF"/>
</svg>
