<svg width="55" height="55" viewBox="0 0 55 55" fill="none" xmlns="http://www.w3.org/2000/svg">
<path d="M27.4996 34.375C31.2966 34.375 34.3746 31.297 34.3746 27.5C34.3746 23.703 31.2966 20.625 27.4996 20.625C23.7027 20.625 20.6246 23.703 20.6246 27.5C20.6246 31.297 23.7027 34.375 27.4996 34.375Z" fill="#EBFAFF"/>
<path fill-rule="evenodd" clip-rule="evenodd" d="M3.03245 26.232C6.44074 15.986 16.1053 8.59375 27.5008 8.59375C38.8911 8.59375 48.5519 15.9791 51.9644 26.2177C52.2402 27.0451 52.2405 27.9404 51.9652 28.768C48.5569 39.014 38.8924 46.4062 27.4968 46.4062C16.1066 46.4062 6.44572 39.0209 3.0332 28.7823C2.75742 27.9549 2.75716 27.0596 3.03245 26.232ZM39.5309 27.5C39.5309 34.1447 34.1443 39.5312 27.4996 39.5312C20.855 39.5312 15.4684 34.1447 15.4684 27.5C15.4684 20.8553 20.855 15.4688 27.4996 15.4688C34.1443 15.4688 39.5309 20.8553 39.5309 27.5Z" fill="#EBFAFF"/>
</svg>
