<svg width="55" height="55" viewBox="0 0 55 55" fill="none" xmlns="http://www.w3.org/2000/svg">
<path fill-rule="evenodd" clip-rule="evenodd" d="M3.4375 12.8906C3.4375 10.5175 5.36128 8.59375 7.73438 8.59375H47.2656C49.6387 8.59375 51.5625 10.5175 51.5625 12.8906V42.1094C51.5625 44.4825 49.6387 46.4062 47.2656 46.4062H7.73437C5.36127 46.4062 3.4375 44.4825 3.4375 42.1094V12.8906ZM6.875 12.8906V16.3281C6.875 16.8027 7.25976 17.1875 7.73438 17.1875H11.1719C11.6465 17.1875 12.0312 16.8027 12.0312 16.3281V12.8906C12.0312 12.416 11.6465 12.0312 11.1719 12.0312H7.73438C7.25975 12.0312 6.875 12.416 6.875 12.8906ZM43.8281 12.0312C43.3535 12.0312 42.9688 12.416 42.9688 12.8906V16.3281C42.9688 16.8027 43.3535 17.1875 43.8281 17.1875H47.2656C47.7402 17.1875 48.125 16.8027 48.125 16.3281V12.8906C48.125 12.416 47.7402 12.0312 47.2656 12.0312H43.8281ZM48.125 21.4844C48.125 21.0098 47.7402 20.625 47.2656 20.625H43.8281C43.3535 20.625 42.9688 21.0098 42.9688 21.4844V24.9219C42.9688 25.3965 43.3535 25.7812 43.8281 25.7812H47.2656C47.7402 25.7812 48.125 25.3965 48.125 24.9219V21.4844ZM48.125 30.0781C48.125 29.6035 47.7402 29.2188 47.2656 29.2188H43.8281C43.3535 29.2188 42.9688 29.6035 42.9688 30.0781V33.5156C42.9688 33.9902 43.3535 34.375 43.8281 34.375H47.2656C47.7402 34.375 48.125 33.9902 48.125 33.5156V30.0781ZM48.125 38.6719C48.125 38.1973 47.7402 37.8125 47.2656 37.8125H43.8281C43.3535 37.8125 42.9688 38.1973 42.9688 38.6719V42.1094C42.9688 42.584 43.3535 42.9688 43.8281 42.9688H47.2656C47.7402 42.9688 48.125 42.584 48.125 42.1094V38.6719ZM11.1719 42.9688C11.6465 42.9688 12.0312 42.584 12.0312 42.1094V38.6719C12.0312 38.1973 11.6465 37.8125 11.1719 37.8125H7.73438C7.25976 37.8125 6.875 38.1973 6.875 38.6719V42.1094C6.875 42.584 7.25976 42.9688 7.73437 42.9688H11.1719ZM7.73438 34.375H11.1719C11.6465 34.375 12.0312 33.9902 12.0312 33.5156V30.0781C12.0312 29.6035 11.6465 29.2188 11.1719 29.2188H7.73438C7.25976 29.2188 6.875 29.6035 6.875 30.0781V33.5156C6.875 33.9902 7.25976 34.375 7.73438 34.375ZM7.73438 25.7812H11.1719C11.6465 25.7812 12.0312 25.3965 12.0312 24.9219V21.4844C12.0312 21.0098 11.6465 20.625 11.1719 20.625H7.73438C7.25976 20.625 6.875 21.0098 6.875 21.4844V24.9219C6.875 25.3965 7.25976 25.7812 7.73438 25.7812ZM17.1875 25.7812C16.2383 25.7812 15.4688 26.5508 15.4688 27.5C15.4688 28.4492 16.2383 29.2188 17.1875 29.2188H37.8125C38.7617 29.2188 39.5312 28.4492 39.5312 27.5C39.5312 26.5508 38.7617 25.7812 37.8125 25.7812H17.1875Z" fill="#EBFAFF"/>
</svg>
