<svg width="55" height="55" viewBox="0 0 55 55" fill="none" xmlns="http://www.w3.org/2000/svg">
<path d="M36.0485 12.6043L38.4192 12.6043C40.2085 15.3163 41.25 18.5652 41.25 22.0574C41.25 25.5496 40.2085 28.7985 38.4192 31.5105L38.0816 31.5105C36.2337 31.5105 34.5664 32.5322 33.426 33.9863C31.6542 36.2455 29.4211 38.1256 26.8686 39.485C25.2137 40.3663 23.7777 41.6757 23.0813 43.4165C22.5941 44.6347 22.3437 45.9346 22.3437 47.2465V48.698C22.3437 49.6472 21.5742 50.4168 20.625 50.4168C17.7773 50.4168 15.4687 48.1082 15.4687 45.2605C15.4687 42.6213 16.0636 40.1211 17.1265 37.8866C17.7351 36.6071 16.8813 34.948 15.4644 34.948L8.30104 34.948C5.94833 34.948 3.84244 33.3576 3.59335 31.0181C3.49034 30.0505 3.4375 29.0679 3.4375 28.073C3.4375 21.5472 5.71056 15.5523 9.50812 10.8369C10.3964 9.7339 11.7696 9.16675 13.1857 9.16675L22.389 9.16675C23.4974 9.16675 24.5986 9.34545 25.6501 9.69595L32.7874 12.0751C33.8389 12.4256 34.9401 12.6043 36.0485 12.6043Z" fill="#EBFAFF"/>
<path d="M49.657 32.1359C50.8869 29.015 51.5625 25.6151 51.5625 22.0574C51.5625 19.2614 51.1452 16.5628 50.3696 14.0206C49.7752 12.0726 47.8863 10.8855 45.8496 10.8855L43.7693 10.8855C42.7483 10.8855 42.1177 12.0274 42.5695 12.943C43.9256 15.6913 44.6875 18.7854 44.6875 22.0574C44.6875 25.972 43.5969 29.6318 41.7031 32.7497C41.1416 33.674 41.7678 34.948 42.8493 34.948H45.2619C47.1686 34.948 48.9579 33.9098 49.657 32.1359Z" fill="#EBFAFF"/>
</svg>
