<svg width="55" height="55" viewBox="0 0 55 55" fill="none" xmlns="http://www.w3.org/2000/svg">
<path d="M17.171 42.3958C16.198 42.3958 15.2922 41.8538 14.9361 40.9483C14.1705 39.0011 13.75 36.8803 13.75 34.6614C13.75 30.6531 15.1221 26.9652 17.4223 24.0419C17.7681 23.6024 18.275 23.3338 18.7966 23.1319C19.8801 22.7124 20.8371 21.9534 21.574 21.0137C23.3458 18.7545 25.5789 16.8744 28.1314 15.515C29.7863 14.6337 31.2223 13.3243 31.9187 11.5835C32.4059 10.3653 32.6562 9.06545 32.6562 7.7535V6.302C32.6562 5.35276 33.4258 4.58325 34.375 4.58325C37.2227 4.58325 39.5312 6.89178 39.5312 9.7395C39.5312 12.3787 38.9364 14.8789 37.8735 17.1134C37.2649 18.3929 38.1187 20.052 39.5356 20.052H46.699C49.0517 20.052 51.1576 21.6424 51.4066 23.9819C51.5097 24.9495 51.5625 25.9321 51.5625 26.927C51.5625 33.4528 49.2894 39.4477 45.4919 44.1631C44.6036 45.2661 43.2304 45.8333 41.8143 45.8333H32.611C31.5026 45.8333 30.4014 45.6546 29.3499 45.3041L22.2126 42.925C21.1611 42.5744 20.0599 42.3958 18.9515 42.3958H17.171Z" fill="#EBFAFF"/>
<path d="M5.34299 24.5829C4.1131 27.7037 3.4375 31.1037 3.4375 34.6614C3.4375 37.4574 3.85477 40.1559 4.63044 42.6982C5.2248 44.6461 7.11374 45.8333 9.15037 45.8333H11.2307C12.2517 45.8333 12.8823 44.6914 12.4305 43.7758C11.0744 41.0274 10.3125 37.9334 10.3125 34.6614C10.3125 30.7468 11.4031 27.0869 13.2969 23.969C13.8584 23.0447 13.2322 21.7708 12.1507 21.7708H9.73811C7.83139 21.7708 6.04209 22.809 5.34299 24.5829Z" fill="#EBFAFF"/>
</svg>
