<svg width="55" height="55" viewBox="0 0 55 55" fill="none" xmlns="http://www.w3.org/2000/svg">
<path d="M26.6864 47.9202L26.6714 47.9122L26.6195 47.8841C26.5753 47.8601 26.5121 47.8254 26.4311 47.7802C26.2692 47.6899 26.0362 47.5576 25.7422 47.3847C25.1545 47.0389 24.3219 46.5298 23.3258 45.8677C21.3371 44.5456 18.6799 42.6023 16.0155 40.1186C10.7429 35.2035 5.15625 27.9013 5.15625 18.9062C5.15625 12.1961 10.802 6.875 17.6172 6.875C21.625 6.875 25.2137 8.70624 27.5 11.5766C29.7864 8.70624 33.375 6.875 37.3828 6.875C44.198 6.875 49.8438 12.1961 49.8438 18.9062C49.8438 27.9013 44.2571 35.2035 38.9845 40.1186C36.3201 42.6023 33.6629 44.5456 31.6742 45.8677C30.6781 46.5298 29.8455 47.0389 29.2578 47.3847C28.9638 47.5576 28.7308 47.6899 28.5689 47.7802C28.4879 47.8254 28.4247 47.8601 28.3805 47.8841L28.3286 47.9122L28.3136 47.9202L28.3073 47.9236C27.8032 48.1913 27.1968 48.1913 26.6927 47.9236L26.6864 47.9202Z" fill="#EBFAFF"/>
</svg>
