<svg width="55" height="55" viewBox="0 0 55 55" fill="none" xmlns="http://www.w3.org/2000/svg">
<path d="M26.2847 8.80224C26.9559 8.13102 28.0441 8.13103 28.7153 8.80224L48.6284 28.7153C49.2996 29.3865 50.3879 29.3865 51.0591 28.7153C51.7303 28.0441 51.7303 26.9558 51.0591 26.2846L31.146 6.37156C29.1324 4.35792 25.8676 4.35792 23.854 6.37156L3.94091 26.2846C3.2697 26.9558 3.2697 28.0441 3.94091 28.7153C4.61212 29.3865 5.70038 29.3865 6.37159 28.7153L26.2847 8.80224Z" fill="#EBFAFF"/>
<path d="M27.5 12.4483L46.1977 31.146C46.2658 31.2141 46.3354 31.2799 46.4062 31.3434V45.5468C46.4062 47.9199 44.4825 49.8437 42.1094 49.8437H34.375C33.4258 49.8437 32.6562 49.0742 32.6562 48.125V37.8125C32.6562 36.8632 31.8867 36.0937 30.9375 36.0937H24.0625C23.1133 36.0937 22.3438 36.8632 22.3438 37.8125V48.125C22.3438 49.0742 21.5742 49.8437 20.625 49.8437H12.8906C10.5175 49.8437 8.59375 47.9199 8.59375 45.5468V31.3434C8.66462 31.2799 8.73416 31.2141 8.80227 31.146L27.5 12.4483Z" fill="#EBFAFF"/>
</svg>
