<svg width="55" height="55" viewBox="0 0 55 55" fill="none" xmlns="http://www.w3.org/2000/svg">
<path fill-rule="evenodd" clip-rule="evenodd" d="M10.3125 8.59375C6.51554 8.59375 3.4375 11.6718 3.4375 15.4687V39.5312C3.4375 43.3282 6.51554 46.4062 10.3125 46.4062H44.6875C48.4845 46.4062 51.5625 43.3282 51.5625 39.5312V15.4688C51.5625 11.6718 48.4845 8.59375 44.6875 8.59375H10.3125ZM19.7656 15.4688C16.9179 15.4688 14.6094 17.7773 14.6094 20.625C14.6094 23.4727 16.9179 25.7812 19.7656 25.7812C22.6133 25.7812 24.9219 23.4727 24.9219 20.625C24.9219 17.7773 22.6133 15.4688 19.7656 15.4688ZM10.8898 35.4126C12.2166 31.8002 15.6874 29.2188 19.7655 29.2188C23.8436 29.2188 27.3144 31.8002 28.6412 35.4126C28.9372 36.2182 28.5934 37.1186 27.836 37.5221C25.4278 38.805 22.679 39.5312 19.7655 39.5312C16.8521 39.5312 14.1032 38.805 11.6951 37.5221C10.9376 37.1186 10.5939 36.2182 10.8898 35.4126ZM34.375 18.9062C33.4258 18.9062 32.6562 19.6758 32.6562 20.625C32.6562 21.5742 33.4258 22.3438 34.375 22.3438H42.9688C43.918 22.3438 44.6875 21.5742 44.6875 20.625C44.6875 19.6758 43.918 18.9062 42.9688 18.9062H34.375ZM32.6562 27.5C32.6562 26.5508 33.4258 25.7812 34.375 25.7812H42.9688C43.918 25.7812 44.6875 26.5508 44.6875 27.5C44.6875 28.4492 43.918 29.2188 42.9688 29.2188H34.375C33.4258 29.2188 32.6562 28.4492 32.6562 27.5ZM34.375 32.6562C33.4258 32.6562 32.6562 33.4258 32.6562 34.375C32.6562 35.3242 33.4258 36.0938 34.375 36.0938H42.9688C43.918 36.0938 44.6875 35.3242 44.6875 34.375C44.6875 33.4258 43.918 32.6562 42.9688 32.6562H34.375Z" fill="#EBFAFF"/>
</svg>
