<svg width="55" height="55" viewBox="0 0 55 55" fill="none" xmlns="http://www.w3.org/2000/svg">
<path fill-rule="evenodd" clip-rule="evenodd" d="M6.01562 15.4688C6.01562 14.0449 7.16989 12.8906 8.59375 12.8906C10.0176 12.8906 11.1719 14.0449 11.1719 15.4688C11.1719 16.8926 10.0176 18.0469 8.59375 18.0469C7.16989 18.0469 6.01562 16.8926 6.01562 15.4688ZM17.1875 15.4688C17.1875 14.5195 17.957 13.75 18.9062 13.75H46.4062C47.3555 13.75 48.125 14.5195 48.125 15.4688C48.125 16.418 47.3555 17.1875 46.4062 17.1875H18.9062C17.957 17.1875 17.1875 16.418 17.1875 15.4688ZM6.01562 27.5C6.01562 26.0761 7.16989 24.9219 8.59375 24.9219C10.0176 24.9219 11.1719 26.0761 11.1719 27.5C11.1719 28.9239 10.0176 30.0781 8.59375 30.0781C7.16989 30.0781 6.01562 28.9239 6.01562 27.5ZM17.1875 27.5C17.1875 26.5508 17.957 25.7812 18.9062 25.7812H46.4062C47.3555 25.7812 48.125 26.5508 48.125 27.5C48.125 28.4492 47.3555 29.2188 46.4062 29.2188H18.9062C17.957 29.2188 17.1875 28.4492 17.1875 27.5ZM6.01562 39.5312C6.01562 38.1074 7.16989 36.9531 8.59375 36.9531C10.0176 36.9531 11.1719 38.1074 11.1719 39.5312C11.1719 40.9551 10.0176 42.1094 8.59375 42.1094C7.16989 42.1094 6.01562 40.9551 6.01562 39.5312ZM17.1875 39.5312C17.1875 38.582 17.957 37.8125 18.9062 37.8125H46.4062C47.3555 37.8125 48.125 38.582 48.125 39.5312C48.125 40.4805 47.3555 41.25 46.4062 41.25H18.9062C17.957 41.25 17.1875 40.4805 17.1875 39.5312Z" fill="#EBFAFF"/>
</svg>
