<svg width="55" height="55" viewBox="0 0 55 55" fill="none" xmlns="http://www.w3.org/2000/svg">
<path fill-rule="evenodd" clip-rule="evenodd" d="M27.5 3.4375C20.8553 3.4375 15.4688 8.82407 15.4688 15.4688V22.3438C11.6718 22.3438 8.59375 25.4218 8.59375 29.2188V44.6875C8.59375 48.4845 11.6718 51.5625 15.4687 51.5625H39.5312C43.3282 51.5625 46.4062 48.4845 46.4062 44.6875V29.2188C46.4062 25.4218 43.3282 22.3438 39.5312 22.3438V15.4688C39.5312 8.82407 34.1447 3.4375 27.5 3.4375ZM36.0938 22.3438V15.4688C36.0938 10.7226 32.2462 6.875 27.5 6.875C22.7538 6.875 18.9062 10.7226 18.9062 15.4688V22.3438H36.0938Z" fill="#EBFAFF"/>
</svg>
