<svg width="55" height="55" viewBox="0 0 55 55" fill="none" xmlns="http://www.w3.org/2000/svg">
<path d="M18.9062 10.3125C18.9062 5.5663 22.7538 1.71875 27.5 1.71875C32.2462 1.71875 36.0938 5.5663 36.0938 10.3125V29.2188C36.0938 33.965 32.2462 37.8125 27.5 37.8125C22.7538 37.8125 18.9062 33.9649 18.9062 29.2188V10.3125Z" fill="#EBFAFF"/>
<path d="M13.75 24.0625C14.6992 24.0625 15.4688 24.832 15.4688 25.7812V29.2188C15.4688 35.8634 20.8553 41.25 27.5 41.25C34.1447 41.25 39.5312 35.8634 39.5312 29.2188V25.7812C39.5312 24.832 40.3008 24.0625 41.25 24.0625C42.1992 24.0625 42.9688 24.832 42.9688 25.7812V29.2188C42.9688 37.181 36.953 43.7381 29.2188 44.5931V49.8438H36.0938C37.043 49.8438 37.8125 50.6133 37.8125 51.5625C37.8125 52.5117 37.043 53.2812 36.0938 53.2812H18.9062C17.957 53.2812 17.1875 52.5117 17.1875 51.5625C17.1875 50.6133 17.957 49.8438 18.9062 49.8438H25.7812V44.5931C18.047 43.7381 12.0312 37.181 12.0312 29.2188V25.7812C12.0312 24.832 12.8008 24.0625 13.75 24.0625Z" fill="#EBFAFF"/>
</svg>
