<svg width="55" height="55" viewBox="0 0 55 55" fill="none" xmlns="http://www.w3.org/2000/svg">
<path fill-rule="evenodd" clip-rule="evenodd" d="M21.8359 3.93681C22.3286 4.42952 22.4751 5.17097 22.2067 5.81403C21.1883 8.25472 20.625 10.9346 20.625 13.7504C20.625 25.1412 29.8591 34.3753 41.25 34.3753C44.0658 34.3753 46.7456 33.812 49.1863 32.7936C49.8294 32.5253 50.5708 32.6718 51.0635 33.1645C51.5563 33.6572 51.7027 34.3986 51.4344 35.0417C47.8084 43.7314 39.2294 49.8441 29.2188 49.8441C15.9294 49.8441 5.15625 39.071 5.15625 25.7816C5.15625 15.7709 11.2689 7.19197 19.9587 3.56595C20.6017 3.29762 21.3432 3.4441 21.8359 3.93681Z" fill="#EBFAFF"/>
</svg>
