<svg width="55" height="55" viewBox="0 0 55 55" fill="none" xmlns="http://www.w3.org/2000/svg">
<path fill-rule="evenodd" clip-rule="evenodd" d="M45.7225 3.7841C46.1531 4.10888 46.4062 4.61694 46.4062 5.15627V13.712C46.4068 13.738 46.4068 13.7639 46.4062 13.7897V37.3607C46.4062 40.4302 44.3714 43.1279 41.42 43.9711L38.395 44.8354C34.6577 45.9032 30.9375 43.097 30.9375 39.2102C30.9375 36.5982 32.6691 34.3026 35.1806 33.585L40.4756 32.0721C41.9513 31.6505 42.9687 30.3017 42.9687 28.7669V16.0286L22.3437 21.9215V44.2357C22.3437 47.3052 20.3089 50.0029 17.3575 50.8461L14.3325 51.7104C10.5952 52.7782 6.875 49.972 6.875 46.0852C6.875 43.4732 8.60656 41.1776 11.1181 40.46L16.4131 38.9471C17.8888 38.5255 18.9062 37.1767 18.9062 35.6419V20.663C18.9057 20.637 18.9057 20.6111 18.9062 20.5853V12.0313C18.9062 11.2639 19.415 10.5895 20.1528 10.3786L44.2153 3.50365C44.7339 3.35548 45.292 3.45932 45.7225 3.7841Z" fill="#EBFAFF"/>
</svg>
