<svg width="55" height="55" viewBox="0 0 55 55" fill="none" xmlns="http://www.w3.org/2000/svg">
<path d="M7.97072 5.50993C7.36402 5.33368 6.70955 5.50449 6.26636 5.95474C5.82317 6.40498 5.66271 7.06207 5.84851 7.6659L11.4225 25.7813H30.9377C31.8869 25.7813 32.6565 26.5508 32.6565 27.5001C32.6565 28.4493 31.8869 29.2188 30.9377 29.2188H11.4225L5.84872 47.3336C5.66292 47.9375 5.82338 48.5945 6.26657 49.0448C6.70977 49.495 7.36425 49.6658 7.97095 49.4896C23.3219 45.03 37.5776 37.9991 50.241 28.895C50.6902 28.5721 50.9565 28.0527 50.9565 27.4995C50.9565 26.9463 50.6902 26.4269 50.241 26.104C37.5775 17 23.3217 9.96929 7.97072 5.50993Z" fill="#EBFAFF"/>
</svg>
