<svg width="55" height="55" viewBox="0 0 55 55" fill="none" xmlns="http://www.w3.org/2000/svg">
<path fill-rule="evenodd" clip-rule="evenodd" d="M5.15625 27.5C5.15625 15.1599 15.1599 5.15625 27.5 5.15625C39.8401 5.15625 49.8438 15.1599 49.8438 27.5C49.8438 39.8401 39.8401 49.8438 27.5 49.8438C15.1599 49.8438 5.15625 39.8401 5.15625 27.5ZM20.625 18.9062C19.6758 18.9062 18.9062 19.6758 18.9062 20.625V34.375C18.9062 35.3242 19.6758 36.0938 20.625 36.0938H22.3438C23.293 36.0938 24.0625 35.3242 24.0625 34.375V20.625C24.0625 19.6758 23.293 18.9062 22.3438 18.9062H20.625ZM32.6562 18.9062C31.707 18.9062 30.9375 19.6758 30.9375 20.625V34.375C30.9375 35.3242 31.707 36.0938 32.6562 36.0938H34.375C35.3242 36.0938 36.0938 35.3242 36.0938 34.375V20.625C36.0938 19.6758 35.3242 18.9062 34.375 18.9062H32.6562Z" fill="#EBFAFF"/>
</svg>
