<svg width="55" height="55" viewBox="0 0 55 55" fill="none" xmlns="http://www.w3.org/2000/svg">
<path fill-rule="evenodd" clip-rule="evenodd" d="M15.4688 12.0312C15.4688 11.082 16.2383 10.3125 17.1875 10.3125H20.625C21.5742 10.3125 22.3437 11.082 22.3437 12.0312V42.9688C22.3437 43.918 21.5742 44.6875 20.625 44.6875H17.1875C16.7317 44.6875 16.2945 44.5064 15.9722 44.1841C15.6498 43.8618 15.4688 43.4246 15.4688 42.9688L15.4688 12.0312ZM32.6562 12.0312C32.6562 11.082 33.4258 10.3125 34.375 10.3125H37.8125C38.2683 10.3125 38.7055 10.4936 39.0278 10.8159C39.3502 11.1382 39.5313 11.5754 39.5313 12.0312L39.5313 42.9688C39.5313 43.918 38.7617 44.6875 37.8125 44.6875H34.375C33.4258 44.6875 32.6562 43.918 32.6562 42.9688V12.0312Z" fill="#EBFAFF"/>
</svg>
