<svg width="55" height="55" viewBox="0 0 55 55" fill="none" xmlns="http://www.w3.org/2000/svg">
<path fill-rule="evenodd" clip-rule="evenodd" d="M3.4375 13.75C3.4375 10.9023 5.74603 8.59375 8.59375 8.59375H46.4062C49.254 8.59375 51.5625 10.9023 51.5625 13.75V41.25C51.5625 44.0977 49.254 46.4062 46.4062 46.4062H8.59375C5.74603 46.4062 3.4375 44.0977 3.4375 41.25V13.75ZM6.875 36.8057V41.25C6.875 42.1992 7.64451 42.9688 8.59375 42.9688H46.4062C47.3555 42.9688 48.125 42.1992 48.125 41.25V36.8057L41.9619 30.6426C40.6195 29.3002 38.443 29.3002 37.1006 30.6426L35.0869 32.6562L37.3091 34.8784C37.9803 35.5496 37.9803 36.6379 37.3091 37.3091C36.6379 37.9803 35.5496 37.9803 34.8784 37.3091L23.0557 25.4864C21.7133 24.1439 19.5367 24.1439 18.1943 25.4864L6.875 36.8057ZM30.0781 18.9062C30.0781 17.4824 31.2324 16.3281 32.6562 16.3281C34.0801 16.3281 35.2344 17.4824 35.2344 18.9062C35.2344 20.3301 34.0801 21.4844 32.6562 21.4844C31.2324 21.4844 30.0781 20.3301 30.0781 18.9062Z" fill="#EBFAFF"/>
</svg>
