<svg width="55" height="55" viewBox="0 0 55 55" fill="none" xmlns="http://www.w3.org/2000/svg">
<path d="M34.375 15.4688C33.4258 15.4688 32.6562 16.2383 32.6562 17.1875V41.25C32.6562 41.7058 32.8373 42.143 33.1597 42.4653C33.482 42.7877 33.9192 42.9688 34.375 42.9688H36.0937C37.043 42.9688 37.8125 42.1992 37.8125 41.25V17.1875C37.8125 16.2383 37.043 15.4688 36.0937 15.4688H34.375Z" fill="#EBFAFF"/>
<path d="M46.4062 15.4688C45.457 15.4688 44.6875 16.2383 44.6875 17.1875V41.25C44.6875 42.1992 45.457 42.9688 46.4062 42.9688H48.125C49.0742 42.9688 49.8438 42.1992 49.8438 41.25L49.8438 17.1875C49.8438 16.7317 49.6627 16.2945 49.3403 15.9722C49.018 15.6498 48.5808 15.4688 48.125 15.4688H46.4062Z" fill="#EBFAFF"/>
<path d="M11.585 16.1806C8.72043 14.5437 5.15625 16.612 5.15625 19.9113V38.5261C5.15625 41.8254 8.72043 43.8938 11.585 42.2569L27.873 32.9494C30.7597 31.2999 30.7597 27.1375 27.873 25.488L11.585 16.1806Z" fill="#EBFAFF"/>
</svg>
