<svg width="55" height="55" viewBox="0 0 55 55" fill="none" xmlns="http://www.w3.org/2000/svg">
<path fill-rule="evenodd" clip-rule="evenodd" d="M5.15625 27.5C5.15625 15.1599 15.1599 5.15625 27.5 5.15625C39.8401 5.15625 49.8438 15.1599 49.8438 27.5C49.8438 39.8401 39.8401 49.8438 27.5 49.8438C15.1599 49.8438 5.15625 39.8401 5.15625 27.5ZM31.2301 18.5242C29.1932 16.7419 25.8078 16.7419 23.771 18.5242C23.0566 19.1493 21.9707 19.0769 21.3457 18.3625C20.7206 17.6481 20.793 16.5623 21.5074 15.9372C24.8402 13.0209 30.1608 13.0209 33.4937 15.9372C36.9611 18.9712 36.9611 23.9975 33.4937 27.0316C32.9055 27.5462 32.2577 27.9678 31.5747 28.2983C30.0249 29.0484 29.2193 30.0717 29.2193 30.9375V32.6562C29.2193 33.6055 28.4498 34.375 27.5005 34.375C26.5513 34.375 25.7818 33.6055 25.7818 32.6562V30.9375C25.7818 28.0064 28.2093 26.1081 30.0772 25.2041C30.4958 25.0016 30.8836 24.7477 31.2301 24.4446C33.1323 22.7801 33.1323 20.1887 31.2301 18.5242ZM27.5 41.25C28.4492 41.25 29.2188 40.4805 29.2188 39.5312C29.2188 38.582 28.4492 37.8125 27.5 37.8125C26.5508 37.8125 25.7812 38.582 25.7812 39.5312C25.7812 40.4805 26.5508 41.25 27.5 41.25Z" fill="#EBFAFF"/>
</svg>
