<svg width="55" height="55" viewBox="0 0 55 55" fill="none" xmlns="http://www.w3.org/2000/svg">
<path fill-rule="evenodd" clip-rule="evenodd" d="M27.5 3.4375C23.0978 3.4375 18.7544 3.6922 14.4838 4.18781C11.0523 4.58605 8.59375 7.53321 8.59375 10.9014V49.8438C8.59375 50.4141 8.87665 50.9473 9.34892 51.267C9.82118 51.5867 10.4213 51.6514 10.9508 51.4396L18.9062 48.2574L26.8617 51.4396C27.2714 51.6035 27.7286 51.6035 28.1383 51.4396L36.0938 48.2574L44.0492 51.4396C44.5787 51.6514 45.1788 51.5867 45.6511 51.267C46.1233 50.9473 46.4062 50.4141 46.4062 49.8438V10.9014C46.4062 7.53321 43.9477 4.58605 40.5162 4.18781C36.2456 3.6922 31.9022 3.4375 27.5 3.4375ZM35.5903 20.1216C36.2616 19.4504 36.2616 18.3621 35.5903 17.6909C34.9191 17.0197 33.8309 17.0197 33.1597 17.6909L19.4097 31.4409C18.7384 32.1121 18.7384 33.2004 19.4097 33.8716C20.0809 34.5428 21.1691 34.5428 21.8403 33.8716L35.5903 20.1216ZM19.7656 20.625C19.7656 19.2011 20.9199 18.0469 22.3438 18.0469C23.7676 18.0469 24.9219 19.2011 24.9219 20.625C24.9219 22.0489 23.7676 23.2031 22.3438 23.2031C20.9199 23.2031 19.7656 22.0489 19.7656 20.625ZM32.6562 28.3594C31.2324 28.3594 30.0781 29.5136 30.0781 30.9375C30.0781 32.3614 31.2324 33.5156 32.6562 33.5156C34.0801 33.5156 35.2344 32.3614 35.2344 30.9375C35.2344 29.5136 34.0801 28.3594 32.6562 28.3594Z" fill="#EBFAFF"/>
</svg>
