<svg width="55" height="55" viewBox="0 0 55 55" fill="none" xmlns="http://www.w3.org/2000/svg">
<path d="M12.7563 10.6728C13.6205 10.4379 14.5298 10.3125 15.4684 10.3125H39.5309C40.4695 10.3125 41.3788 10.4379 42.243 10.6728C41.1139 8.42081 38.7842 6.875 36.0934 6.875H18.9059C16.2152 6.875 13.8854 8.42081 12.7563 10.6728Z" fill="#EBFAFF"/>
<path d="M5.15625 27.5C5.15625 23.703 8.23429 20.625 12.0312 20.625H42.9688C46.7657 20.625 49.8438 23.703 49.8438 27.5V41.25C49.8438 45.047 46.7657 48.125 42.9688 48.125H12.0312C8.23429 48.125 5.15625 45.047 5.15625 41.25V27.5Z" fill="#EBFAFF"/>
<path d="M12.0309 17.1875C11.0923 17.1875 10.183 17.3129 9.31885 17.5478C10.4479 15.2958 12.7777 13.75 15.4684 13.75H39.5309C42.2217 13.75 44.5514 15.2958 45.6805 17.5478C44.8163 17.3129 43.907 17.1875 42.9684 17.1875H12.0309Z" fill="#EBFAFF"/>
</svg>
