<svg width="55" height="55" viewBox="0 0 55 55" fill="none" xmlns="http://www.w3.org/2000/svg">
<path fill-rule="evenodd" clip-rule="evenodd" d="M8.59375 10.3125C8.59375 9.36326 9.36326 8.59375 10.3125 8.59375H12.0312C31.016 8.59375 46.4062 23.984 46.4062 42.9688V44.6875C46.4062 45.6367 45.6367 46.4062 44.6875 46.4062H42.9688C42.0195 46.4062 41.25 45.6367 41.25 44.6875V42.9688C41.25 26.8317 28.1683 13.75 12.0312 13.75H10.3125C9.36326 13.75 8.59375 12.9805 8.59375 12.0312V10.3125ZM8.59375 25.7812C8.59375 24.832 9.36326 24.0625 10.3125 24.0625H12.0312C22.4729 24.0625 30.9375 32.5271 30.9375 42.9688V44.6875C30.9375 45.6367 30.168 46.4062 29.2188 46.4062H27.5C26.5508 46.4062 25.7812 45.6367 25.7812 44.6875V42.9688C25.7812 35.3748 19.6252 29.2188 12.0312 29.2188H10.3125C9.36326 29.2188 8.59375 28.4492 8.59375 27.5V25.7812ZM8.59375 42.9688C8.59375 41.0703 10.1328 39.5312 12.0312 39.5312C13.9297 39.5312 15.4688 41.0703 15.4688 42.9688C15.4688 44.8672 13.9297 46.4062 12.0312 46.4062C10.1328 46.4062 8.59375 44.8672 8.59375 42.9688Z" fill="#EBFAFF"/>
</svg>
