<svg width="55" height="55" viewBox="0 0 55 55" fill="none" xmlns="http://www.w3.org/2000/svg">
<path fill-rule="evenodd" clip-rule="evenodd" d="M36.0938 10.3125C36.0938 6.51554 39.1718 3.4375 42.9688 3.4375C46.7657 3.4375 49.8438 6.51554 49.8438 10.3125C49.8438 14.1095 46.7657 17.1875 42.9688 17.1875C41.0055 17.1875 39.236 16.3642 37.9847 15.0476L18.6861 25.7691C18.8298 26.3229 18.9062 26.9031 18.9062 27.5C18.9062 28.0969 18.8298 28.6772 18.6861 29.2309L37.9847 39.9524C39.236 38.6358 41.0055 37.8125 42.9688 37.8125C46.7657 37.8125 49.8438 40.8905 49.8438 44.6875C49.8438 48.4845 46.7657 51.5625 42.9688 51.5625C39.1718 51.5625 36.0938 48.4845 36.0938 44.6875C36.0938 44.0906 36.1702 43.5103 36.3139 42.9566L17.0153 32.2351C15.764 33.5517 13.9945 34.375 12.0312 34.375C8.23429 34.375 5.15625 31.297 5.15625 27.5C5.15625 23.703 8.23429 20.625 12.0312 20.625C13.9945 20.625 15.764 21.4483 17.0153 22.7649L36.3139 12.0434C36.1702 11.4896 36.0938 10.9094 36.0938 10.3125Z" fill="#EBFAFF"/>
</svg>
