<svg width="55" height="55" viewBox="0 0 55 55" fill="none" xmlns="http://www.w3.org/2000/svg">
<path fill-rule="evenodd" clip-rule="evenodd" d="M28.6819 4.97253C28.019 4.34477 26.981 4.34477 26.3181 4.97253C21.6964 9.34954 15.4601 12.0316 8.59375 12.0316C8.48451 12.0316 8.37543 12.0309 8.26652 12.0295C7.51631 12.0202 6.84674 12.4986 6.61241 13.2113C5.667 16.0868 5.15625 19.1576 5.15625 22.3442C5.15625 35.9613 14.4697 47.3988 27.0716 50.6423C27.3526 50.7146 27.6474 50.7146 27.9284 50.6423C40.5303 47.3988 49.8438 35.9613 49.8438 22.3442C49.8438 19.1576 49.333 16.0868 48.3876 13.2113C48.1533 12.4986 47.4837 12.0202 46.7335 12.0295C46.6246 12.0309 46.5155 12.0316 46.4062 12.0316C39.5399 12.0316 33.3036 9.34954 28.6819 4.97253ZM35.7736 23.3428C36.3253 22.5704 36.1464 21.4969 35.374 20.9452C34.6016 20.3935 33.5281 20.5724 32.9764 21.3448L25.5619 31.7251L21.8403 28.0035C21.1691 27.3323 20.0809 27.3323 19.4097 28.0035C18.7384 28.6747 18.7384 29.7629 19.4097 30.4342L24.5659 35.5904C24.9232 35.9477 25.4195 36.1296 25.923 36.088C26.4265 36.0463 26.8862 35.7852 27.1799 35.3741L35.7736 23.3428Z" fill="#EBFAFF"/>
</svg>
