<svg width="55" height="55" viewBox="0 0 55 55" fill="none" xmlns="http://www.w3.org/2000/svg">
<path fill-rule="evenodd" clip-rule="evenodd" d="M17.1873 13.75V15.4688H12.6335C10.4345 15.4688 8.59041 17.1289 8.36021 19.3158L5.46548 46.8158C5.19842 49.3528 7.18768 51.5625 9.73874 51.5625H45.2612C47.8123 51.5625 49.8016 49.3529 49.5345 46.8158L46.6398 19.3158C46.4096 17.1289 44.5655 15.4688 42.3665 15.4688H37.8123V13.75C37.8123 8.05456 33.1953 3.4375 27.4998 3.4375C21.8044 3.4375 17.1873 8.05456 17.1873 13.75ZM27.4998 6.875C23.7029 6.875 20.6248 9.95304 20.6248 13.75V15.4688H34.3748V13.75C34.3748 9.95304 31.2968 6.875 27.4998 6.875ZM20.6248 25.7812C20.6248 29.5782 23.7029 32.6562 27.4998 32.6562C31.2968 32.6562 34.3748 29.5782 34.3748 25.7812V24.0625C34.3748 23.1133 35.1443 22.3438 36.0936 22.3438C37.0428 22.3438 37.8123 23.1133 37.8123 24.0625V25.7812C37.8123 31.4767 33.1953 36.0938 27.4998 36.0938C21.8044 36.0938 17.1873 31.4767 17.1873 25.7812V24.0625C17.1873 23.1133 17.9568 22.3438 18.9061 22.3438C19.8553 22.3438 20.6248 23.1133 20.6248 24.0625V25.7812Z" fill="#EBFAFF"/>
</svg>
