<svg width="55" height="55" viewBox="0 0 55 55" fill="none" xmlns="http://www.w3.org/2000/svg">
<path fill-rule="evenodd" clip-rule="evenodd" d="M20.625 10.3125C21.3924 10.3125 22.0668 10.8212 22.2776 11.5591L24.1412 18.0816C24.9569 20.9365 27.1885 23.1681 30.0434 23.9838L36.5659 25.8474C37.3038 26.0582 37.8125 26.7326 37.8125 27.5C37.8125 28.2674 37.3038 28.9418 36.5659 29.1526L30.0434 31.0162C27.1885 31.8319 24.9569 34.0635 24.1412 36.9184L22.2776 43.4409C22.0668 44.1788 21.3924 44.6875 20.625 44.6875C19.8576 44.6875 19.1832 44.1788 18.9724 43.4409L17.1088 36.9184C16.2931 34.0635 14.0615 31.8319 11.2066 31.0162L4.68407 29.1526C3.94621 28.9418 3.4375 28.2674 3.4375 27.5C3.4375 26.7326 3.94621 26.0582 4.68407 25.8474L11.2066 23.9838C14.0615 23.1681 16.2931 20.9365 17.1088 18.0816L18.9724 11.5591C19.1832 10.8212 19.8576 10.3125 20.625 10.3125Z" fill="#EBFAFF"/>
<path fill-rule="evenodd" clip-rule="evenodd" d="M41.25 3.4375C42.0387 3.4375 42.7262 3.97426 42.9174 4.73939L43.5107 7.11232C44.0495 9.26763 45.7324 10.9505 47.8877 11.4893L50.2606 12.0826C51.0257 12.2738 51.5625 12.9613 51.5625 13.75C51.5625 14.5387 51.0257 15.2262 50.2606 15.4174L47.8877 16.0107C45.7324 16.5495 44.0495 18.2324 43.5107 20.3877L42.9174 22.7606C42.7262 23.5257 42.0387 24.0625 41.25 24.0625C40.4613 24.0625 39.7738 23.5257 39.5826 22.7606L38.9893 20.3877C38.4505 18.2324 36.7676 16.5495 34.6123 16.0107L32.2394 15.4174C31.4743 15.2262 30.9375 14.5387 30.9375 13.75C30.9375 12.9613 31.4743 12.2738 32.2394 12.0826L34.6123 11.4893C36.7676 10.9505 38.4505 9.26764 38.9893 7.11233L39.5826 4.73939C39.7738 3.97426 40.4613 3.4375 41.25 3.4375Z" fill="#EBFAFF"/>
<path fill-rule="evenodd" clip-rule="evenodd" d="M37.8125 34.375C38.5523 34.375 39.2091 34.8484 39.4431 35.5502L40.3465 38.2607C40.6887 39.2871 41.4941 40.0926 42.5206 40.4347L45.231 41.3382C45.9329 41.5721 46.4062 42.2289 46.4062 42.9688C46.4062 43.7086 45.9329 44.3654 45.231 44.5993L42.5206 45.5028C41.4941 45.8449 40.6887 46.6504 40.3465 47.6768L39.4431 50.3873C39.2091 51.0891 38.5523 51.5625 37.8125 51.5625C37.0727 51.5625 36.4159 51.0891 36.1819 50.3873L35.2785 47.6768C34.9363 46.6504 34.1309 45.8449 33.1044 45.5028L30.394 44.5993C29.6921 44.3654 29.2188 43.7086 29.2188 42.9688C29.2188 42.2289 29.6921 41.5721 30.394 41.3382L33.1044 40.4347C34.1309 40.0926 34.9363 39.2871 35.2785 38.2607L36.1819 35.5502C36.4159 34.8484 37.0727 34.375 37.8125 34.375Z" fill="#EBFAFF"/>
</svg>
