<svg width="55" height="55" viewBox="0 0 55 55" fill="none" xmlns="http://www.w3.org/2000/svg">
<path d="M31.4285 4.37738C31.4285 0.485368 27.1969 -1.46379 24.722 1.2883L12.9363 14.3941H7.88084C4.89163 14.3941 1.8099 16.3293 0.914841 19.9425C0.318135 22.3512 0 24.8861 0 27.5C0 30.1139 0.318135 32.6488 0.914841 35.0575C1.8099 38.6707 4.89163 40.6059 7.88084 40.6059H12.9363L24.722 53.7117C27.1969 56.4638 31.4285 54.5146 31.4285 50.6226V4.37738Z" fill="#EBFAFF"/>
<path d="M44.7429 7.4208C45.51 6.56777 46.7537 6.56777 47.5208 7.4208C57.4931 18.5101 57.4931 36.4895 47.5208 47.5788C46.7537 48.4318 45.51 48.4318 44.7429 47.5788C43.9758 46.7258 43.9758 45.3428 44.7429 44.4897C53.181 35.1065 53.181 19.8932 44.7429 10.5099C43.9758 9.65685 43.9758 8.27383 44.7429 7.4208Z" fill="#EBFAFF"/>
<path d="M37.7988 15.1437C38.5659 14.2907 39.8096 14.2907 40.5767 15.1437C46.7135 21.9679 46.7135 33.0322 40.5767 39.8564C39.8096 40.7094 38.5659 40.7094 37.7988 39.8564C37.0317 39.0033 37.0317 37.6203 37.7988 36.7673C42.4014 31.6491 42.4014 23.351 37.7988 18.2328C37.0317 17.3798 37.0317 15.9968 37.7988 15.1437Z" fill="#EBFAFF"/>
</svg>
