<svg width="55" height="55" viewBox="0 0 55 55" fill="none" xmlns="http://www.w3.org/2000/svg">
<path d="M30.9375 9.30572C30.9375 6.24325 27.2348 4.70953 25.0693 6.87504L14.7568 17.1875H10.3333C7.71769 17.1875 5.02117 18.7102 4.23799 21.5533C3.71587 23.4487 3.4375 25.4432 3.4375 27.5C3.4375 29.5569 3.71587 31.5514 4.23799 33.4468C5.02117 36.2899 7.71769 37.8125 10.3333 37.8125H14.7568L25.0693 48.125C27.2348 50.2906 30.9375 48.7568 30.9375 45.6944V9.30572Z" fill="#EBFAFF"/>
<path d="M40.7466 21.1284C40.0754 20.4572 38.9871 20.4572 38.3159 21.1284C37.6447 21.7996 37.6447 22.8879 38.3159 23.5591L42.2568 27.5L38.3159 31.4409C37.6447 32.1121 37.6447 33.2004 38.3159 33.8716C38.9871 34.5428 40.0754 34.5428 40.7466 33.8716L44.6875 29.9307L48.6284 33.8716C49.2996 34.5428 50.3879 34.5428 51.0591 33.8716C51.7303 33.2004 51.7303 32.1121 51.0591 31.4409L47.1182 27.5L51.0591 23.5591C51.7303 22.8879 51.7303 21.7996 51.0591 21.1284C50.3879 20.4572 49.2996 20.4572 48.6284 21.1284L44.6875 25.0693L40.7466 21.1284Z" fill="#EBFAFF"/>
</svg>
