<svg width="55" height="55" viewBox="0 0 55 55" fill="none" xmlns="http://www.w3.org/2000/svg">
<path fill-rule="evenodd" clip-rule="evenodd" d="M6.875 13.75C6.875 9.95304 9.95304 6.875 13.75 6.875H18.9062C22.7032 6.875 25.7812 9.95304 25.7812 13.75V18.9062C25.7812 22.7032 22.7032 25.7812 18.9062 25.7812H13.75C9.95304 25.7812 6.875 22.7032 6.875 18.9062V13.75ZM29.2188 13.75C29.2188 9.95304 32.2968 6.875 36.0938 6.875H41.25C45.047 6.875 48.125 9.95304 48.125 13.75V18.9062C48.125 22.7032 45.047 25.7812 41.25 25.7812H36.0938C32.2968 25.7812 29.2188 22.7032 29.2188 18.9062V13.75ZM6.875 36.0938C6.875 32.2968 9.95304 29.2188 13.75 29.2188H18.9062C22.7032 29.2188 25.7812 32.2968 25.7812 36.0938V41.25C25.7812 45.047 22.7032 48.125 18.9062 48.125H13.75C9.95304 48.125 6.875 45.047 6.875 41.25V36.0938ZM29.2188 36.0938C29.2188 32.2968 32.2968 29.2188 36.0938 29.2188H41.25C45.047 29.2188 48.125 32.2968 48.125 36.0938V41.25C48.125 45.047 45.047 48.125 41.25 48.125H36.0938C32.2968 48.125 29.2188 45.047 29.2188 41.25V36.0938Z" fill="#EBFAFF"/>
</svg>
