<svg width="55" height="55" viewBox="0 0 55 55" fill="none" xmlns="http://www.w3.org/2000/svg">
<path d="M27.5 5.15625C28.4492 5.15625 29.2188 5.92576 29.2188 6.875V12.0312C29.2188 12.9805 28.4492 13.75 27.5 13.75C26.5508 13.75 25.7812 12.9805 25.7812 12.0312V6.875C25.7812 5.92576 26.5508 5.15625 27.5 5.15625Z" fill="#EBFAFF"/>
<path d="M17.1875 27.5C17.1875 21.8046 21.8046 17.1875 27.5 17.1875C33.1954 17.1875 37.8125 21.8046 37.8125 27.5C37.8125 33.1954 33.1954 37.8125 27.5 37.8125C21.8046 37.8125 17.1875 33.1954 17.1875 27.5Z" fill="#EBFAFF"/>
<path d="M43.2995 14.1312C43.9708 13.46 43.9708 12.3717 43.2995 11.7005C42.6283 11.0293 41.5401 11.0293 40.8689 11.7005L37.2228 15.3465C36.5516 16.0177 36.5516 17.106 37.2228 17.7772C37.8941 18.4484 38.9823 18.4484 39.6535 17.7772L43.2995 14.1312Z" fill="#EBFAFF"/>
<path d="M49.8438 27.5C49.8438 28.4492 49.0742 29.2188 48.125 29.2188H42.9688C42.0195 29.2188 41.25 28.4492 41.25 27.5C41.25 26.5508 42.0195 25.7812 42.9688 25.7812H48.125C49.0742 25.7812 49.8438 26.5508 49.8438 27.5Z" fill="#EBFAFF"/>
<path d="M40.8686 43.2993C41.5398 43.9705 42.6281 43.9705 43.2993 43.2993C43.9705 42.6281 43.9705 41.5399 43.2993 40.8686L39.6533 37.2226C38.982 36.5514 37.8938 36.5514 37.2226 37.2226C36.5514 37.8938 36.5514 38.9821 37.2226 39.6533L40.8686 43.2993Z" fill="#EBFAFF"/>
<path d="M27.5 41.25C28.4492 41.25 29.2188 42.0195 29.2188 42.9688V48.125C29.2188 49.0742 28.4492 49.8438 27.5 49.8438C26.5508 49.8438 25.7812 49.0742 25.7812 48.125V42.9688C25.7812 42.0195 26.5508 41.25 27.5 41.25Z" fill="#EBFAFF"/>
<path d="M17.7776 39.6533C18.4488 38.9821 18.4488 37.8939 17.7776 37.2226C17.1064 36.5514 16.0181 36.5514 15.3469 37.2226L11.7009 40.8687C11.0297 41.5399 11.0297 42.6281 11.7009 43.2994C12.3721 43.9706 13.4604 43.9706 14.1316 43.2994L17.7776 39.6533Z" fill="#EBFAFF"/>
<path d="M13.75 27.5C13.75 28.4492 12.9805 29.2188 12.0312 29.2188H6.875C5.92576 29.2188 5.15625 28.4492 5.15625 27.5C5.15625 26.5508 5.92576 25.7812 6.875 25.7812H12.0312C12.9805 25.7812 13.75 26.5508 13.75 27.5Z" fill="#EBFAFF"/>
<path d="M15.3467 17.7772C16.0179 18.4484 17.1061 18.4484 17.7774 17.7772C18.4486 17.106 18.4486 16.0177 17.7774 15.3465L14.1313 11.7005C13.4601 11.0293 12.3719 11.0293 11.7007 11.7005C11.0294 12.3717 11.0294 13.46 11.7007 14.1312L15.3467 17.7772Z" fill="#EBFAFF"/>
</svg>
