<svg width="55" height="55" viewBox="0 0 55 55" fill="none" xmlns="http://www.w3.org/2000/svg">
<path fill-rule="evenodd" clip-rule="evenodd" d="M37.8128 10.2625V10.7822C40.0007 10.9825 42.1705 11.2459 44.3203 11.5706C45.1163 11.6908 45.9095 11.8194 46.6999 11.9563C47.6352 12.1183 48.2621 13.0079 48.1001 13.9432C47.938 14.8785 47.0485 15.5054 46.1132 15.3434C45.9537 15.3157 45.794 15.2885 45.6343 15.2615L43.3302 45.2148C43.0547 48.7966 40.0679 51.5625 36.4754 51.5625H18.5251C14.9327 51.5625 11.9459 48.7966 11.6704 45.2148L9.36628 15.2615C9.20653 15.2885 9.0469 15.3157 8.88739 15.3434C7.95208 15.5054 7.06252 14.8785 6.9005 13.9432C6.73848 13.0079 7.36536 12.1183 8.30067 11.9563C9.09107 11.8194 9.88429 11.6908 10.6803 11.5706C12.8301 11.2459 14.9999 10.9825 17.1878 10.7822V10.2625C17.1878 6.67726 19.9665 3.61667 23.6398 3.49916C24.9217 3.45816 26.2086 3.4375 27.5003 3.4375C28.792 3.4375 30.0789 3.45816 31.3607 3.49916C35.0341 3.61667 37.8128 6.67726 37.8128 10.2625ZM23.7497 6.9349C24.995 6.89507 26.2452 6.875 27.5003 6.875C28.7553 6.875 30.0056 6.89507 31.2508 6.9349C32.9802 6.99022 34.3753 8.44235 34.3753 10.2625V10.5206C32.1011 10.3825 29.8088 10.3125 27.5003 10.3125C25.1918 10.3125 22.8994 10.3825 20.6253 10.5206V10.2625C20.6253 8.44235 22.0204 6.99022 23.7497 6.9349ZM22.9367 20.5589C22.9002 19.6104 22.1017 18.871 21.1531 18.9075C20.2046 18.944 19.4652 19.7425 19.5017 20.6911L20.295 41.3161C20.3314 42.2646 21.13 43.004 22.0785 42.9675C23.027 42.931 23.7664 42.1325 23.7299 41.1839L22.9367 20.5589ZM35.4968 20.6911C35.5332 19.7425 34.7939 18.944 33.8453 18.9075C32.8968 18.871 32.0983 19.6104 32.0618 20.5589L31.2685 41.1839C31.232 42.1325 31.9714 42.931 32.9199 42.9675C33.8685 43.004 34.667 42.2646 34.7035 41.3161L35.4968 20.6911Z" fill="#EBFAFF"/>
</svg>
