<svg width="58" height="55" viewBox="0 0 58 55" fill="none" xmlns="http://www.w3.org/2000/svg">
<path fill-rule="evenodd" clip-rule="evenodd" d="M44.6828 43.7642C49.1947 39.6897 52.0113 33.91 52.0113 27.5C52.0113 15.1599 41.5727 5.15625 28.6961 5.15625C15.8194 5.15625 5.38086 15.1599 5.38086 27.5C5.38086 33.91 8.19746 39.6897 12.7093 43.7642C16.8833 47.5336 22.5082 49.8438 28.6961 49.8438C34.884 49.8438 40.5088 47.5336 44.6828 43.7642ZM14.6953 40.8199C17.9821 36.8908 23.0325 34.375 28.6961 34.375C34.3596 34.375 39.41 36.8908 42.6969 40.8199C39.1228 44.2699 34.1698 46.4062 28.6961 46.4062C23.2224 46.4062 18.2693 44.2699 14.6953 40.8199ZM37.6635 20.625C37.6635 25.3712 33.6486 29.2188 28.6961 29.2188C23.7435 29.2188 19.7287 25.3712 19.7287 20.625C19.7287 15.8788 23.7435 12.0312 28.6961 12.0312C33.6486 12.0312 37.6635 15.8788 37.6635 20.625Z" fill="#EBFAFF"/>
</svg>
