<svg width="55" height="55" viewBox="0 0 55 55" fill="none" xmlns="http://www.w3.org/2000/svg">
<path fill-rule="evenodd" clip-rule="evenodd" d="M17.1878 13.75C17.1878 8.05456 21.8049 3.4375 27.5003 3.4375C33.1958 3.4375 37.8128 8.05456 37.8128 13.75C37.8128 19.4454 33.1958 24.0625 27.5003 24.0625C21.8049 24.0625 17.1878 19.4454 17.1878 13.75Z" fill="#EBFAFF"/>
<path fill-rule="evenodd" clip-rule="evenodd" d="M8.59694 46.0747C8.77417 35.7857 17.1695 27.5 27.5003 27.5C37.8314 27.5 46.2269 35.7861 46.4037 46.0754C46.4155 46.7578 46.0223 47.3825 45.402 47.6671C39.9503 50.1687 33.8861 51.5625 27.5011 51.5625C21.1154 51.5625 15.0507 50.1684 9.59857 47.6664C8.97828 47.3818 8.58518 46.7571 8.59694 46.0747Z" fill="#EBFAFF"/>
</svg>
