<svg width="55" height="55" viewBox="0 0 55 55" fill="none" xmlns="http://www.w3.org/2000/svg">
<path fill-rule="evenodd" clip-rule="evenodd" d="M12.5347 12.5347C13.2059 11.8634 14.2941 11.8634 14.9653 12.5347L27.5 25.0693L40.0347 12.5347C40.7059 11.8634 41.7941 11.8634 42.4653 12.5347C43.1366 13.2059 43.1366 14.2941 42.4653 14.9653L29.9307 27.5L42.4653 40.0347C43.1366 40.7059 43.1366 41.7941 42.4653 42.4653C41.7941 43.1366 40.7059 43.1366 40.0347 42.4653L27.5 29.9307L14.9653 42.4653C14.2941 43.1366 13.2059 43.1366 12.5347 42.4653C11.8634 41.7941 11.8634 40.7059 12.5347 40.0347L25.0693 27.5L12.5347 14.9653C11.8634 14.2941 11.8634 13.2059 12.5347 12.5347Z" fill="#EBFAFF"/>
</svg>
