<svg width="55" height="52" viewBox="0 0 55 52" fill="none" xmlns="http://www.w3.org/2000/svg">
<path d="M13.2657 14.9764C13.8386 14.2202 14.9156 14.0597 15.6718 14.6327C16.4279 15.2056 16.5884 16.2828 16.0155 17.0391C13.5407 20.3392 12.2345 24.1895 12.2345 28.1772C12.2345 38.4673 20.5984 46.8323 30.8872 46.8323C41.176 46.8323 49.5399 38.4673 49.5399 28.1772C49.5399 17.887 41.176 9.54491 30.8872 9.54491C29.5581 9.54491 28.2061 9.70533 26.7396 10.0491C26.6708 10.072 26.6021 10.0491 26.5104 10.0491C26.4646 10.0491 26.3959 10.0949 26.35 10.0949C26.2813 10.0949 26.2355 10.072 26.1667 10.072C26.0751 10.072 26.0063 10.0491 25.9376 10.0262C25.823 10.0033 25.7084 9.95743 25.5939 9.88868C25.5251 9.84284 25.4335 9.81992 25.3647 9.77409C25.3418 9.75117 25.296 9.75117 25.273 9.72825C25.2043 9.68242 25.1814 9.61366 25.1356 9.56783C25.0439 9.47616 24.9752 9.4074 24.9064 9.29281C24.8377 9.20114 24.8148 9.08655 24.7689 8.99488C24.746 8.92613 24.7002 8.85737 24.6773 8.78862C24.6773 8.74278 24.6773 8.71987 24.6773 8.67403C24.6543 8.55944 24.6543 8.44485 24.6773 8.33026C24.6773 8.21567 24.6773 8.124 24.7002 8.00941C24.7231 7.91774 24.7689 7.82607 24.8148 7.71148C24.8606 7.59689 24.9064 7.4823 24.9752 7.39063C24.9981 7.34479 24.9981 7.32188 25.021 7.29896L29.5581 1.63824C30.1539 0.90487 31.2309 0.790281 31.9642 1.36323C32.6974 1.95909 32.812 3.03623 32.2391 3.7696L30.3601 6.10723C30.5434 6.10723 30.7268 6.08431 30.9101 6.08431C43.0779 6.08431 53 15.9848 53 28.1772C53 40.3695 43.1008 50.27 30.9101 50.27C18.7194 50.27 8.82025 40.3695 8.82025 28.1772C8.79733 23.4332 10.3555 18.8725 13.2657 14.9764Z" fill="#EBFAFF"/>
<path d="M25.1529 35.895C24.2133 35.895 23.4341 35.1686 23.4341 34.2928V27.0509L22.9987 27.5209C22.3571 28.1831 21.28 28.2258 20.5696 27.649C19.8591 27.0509 19.8133 26.0469 20.4321 25.3846L23.8696 21.8171C24.3508 21.3258 25.1071 21.1549 25.7716 21.3899C26.4362 21.6248 26.8716 22.223 26.8716 22.8852V34.3141C26.8716 35.19 26.1154 35.895 25.1529 35.895Z" fill="#EBFAFF"/>
<path d="M35.3704 35.8935C31.8871 35.8935 29.0684 33.266 29.0684 30.0189V27.1349C29.0684 23.8878 31.8871 21.2603 35.3704 21.2603C38.8538 21.2603 41.6725 23.8878 41.6725 27.1349V30.0189C41.6725 33.266 38.8538 35.8935 35.3704 35.8935ZM35.3704 24.486C33.7892 24.486 32.5059 25.6823 32.5059 27.1563V30.0402C32.5059 31.5142 33.7892 32.7105 35.3704 32.7105C36.9517 32.7105 38.235 31.5142 38.235 30.0402V27.1563C38.235 25.6823 36.9517 24.486 35.3704 24.486Z" fill="#EBFAFF"/>
</svg>
