<svg width="55" height="55" viewBox="0 0 55 55" fill="none" xmlns="http://www.w3.org/2000/svg">
<path d="M45.1263 16.8402C44.5533 16.084 43.4763 15.9235 42.72 16.4965C41.9638 17.0694 41.8033 18.1465 42.3763 18.9027C44.8513 22.2027 46.1575 26.0527 46.1575 30.0402C46.1575 40.3298 37.7929 48.6944 27.5033 48.6944C17.2137 48.6944 8.84909 40.3298 8.84909 30.0402C8.84909 19.7506 17.2137 11.409 27.5033 11.409C28.8325 11.409 30.1846 11.5694 31.6513 11.9131C31.72 11.936 31.7888 11.9131 31.8804 11.9131C31.9263 11.9131 31.995 11.959 32.0408 11.959C32.1096 11.959 32.1554 11.936 32.2242 11.936C32.3158 11.936 32.3846 11.9131 32.4533 11.8902C32.5679 11.8673 32.6825 11.8215 32.7971 11.7527C32.8658 11.7069 32.9575 11.684 33.0263 11.6381C33.0492 11.6152 33.095 11.6152 33.1179 11.5923C33.1867 11.5465 33.2096 11.4777 33.2554 11.4319C33.3471 11.3402 33.4158 11.2715 33.4846 11.1569C33.5533 11.0652 33.5763 10.9506 33.6221 10.859C33.645 10.7902 33.6908 10.7215 33.7138 10.6527C33.7138 10.6069 33.7138 10.584 33.7138 10.5381C33.7367 10.4235 33.7367 10.309 33.7138 10.1944C33.7138 10.0798 33.7138 9.98813 33.6908 9.87354C33.6679 9.78188 33.6221 9.69021 33.5763 9.57563C33.5304 9.46104 33.4846 9.34646 33.4158 9.25479C33.3929 9.20896 33.3929 9.18604 33.37 9.16313L28.8325 3.50271C28.2367 2.76938 27.1596 2.65479 26.4263 3.22771C25.6929 3.82354 25.5783 4.90063 26.1513 5.63396L28.0304 7.97146C27.8471 7.97146 27.6638 7.94854 27.4804 7.94854C15.3116 7.94854 5.38867 17.8485 5.38867 30.0402C5.38867 42.2319 15.2887 52.1319 27.4804 52.1319C39.6721 52.1319 49.5721 42.2319 49.5721 30.0402C49.595 25.2965 48.0367 20.736 45.1263 16.8402Z" fill="#EBFAFF"/>
<path d="M21.8658 38.2039C20.9262 38.2039 20.147 37.4248 20.147 36.4852V28.7164L19.7116 29.2206C19.0699 29.931 17.9929 29.9768 17.2824 29.3581C16.572 28.7164 16.5262 27.6393 17.1449 26.9289L20.5824 23.1018C21.0637 22.5748 21.8199 22.3914 22.4845 22.6435C23.1491 22.8956 23.5845 23.5373 23.5845 24.2477V36.5081C23.5845 37.4477 22.8283 38.2039 21.8658 38.2039Z" fill="#EBFAFF"/>
<path d="M32.0833 38.2028C28.6 38.2028 25.7812 35.384 25.7812 31.9007V28.8069C25.7812 25.3236 28.6 22.5049 32.0833 22.5049C35.5667 22.5049 38.3854 25.3236 38.3854 28.8069V31.9007C38.3854 35.384 35.5667 38.2028 32.0833 38.2028ZM32.0833 25.9653C30.5021 25.9653 29.2188 27.2486 29.2188 28.8299V31.9236C29.2188 33.5049 30.5021 34.7882 32.0833 34.7882C33.6646 34.7882 34.9479 33.5049 34.9479 31.9236V28.8299C34.9479 27.2486 33.6646 25.9653 32.0833 25.9653Z" fill="#EBFAFF"/>
</svg>
