<svg width="55" height="55" viewBox="0 0 55 55" fill="none" xmlns="http://www.w3.org/2000/svg">
<path fill-rule="evenodd" clip-rule="evenodd" d="M43.3125 8.25C46.7298 8.25 49.5 11.0202 49.5 14.4375V17.7747C49.5 18.9402 48.737 19.9426 47.7598 20.5778C45.4967 22.0488 44 24.5996 44 27.5C44 30.4004 45.4967 32.9512 47.7598 34.4222C48.737 35.0574 49.5 36.0598 49.5 37.2253V40.5625C49.5 43.9798 46.7298 46.75 43.3125 46.75H11.6875C8.27024 46.75 5.5 43.9798 5.5 40.5625V37.2253C5.5 36.0598 6.26296 35.0574 7.24017 34.4222C9.50332 32.9512 11 30.4004 11 27.5C11 24.5996 9.50332 22.0488 7.24017 20.5778C6.26296 19.9426 5.5 18.9402 5.5 17.7747V14.4375C5.5 11.0202 8.27024 8.25 11.6875 8.25H43.3125ZM37.125 20.3385C37.125 19.1995 36.2016 18.276 35.0625 18.276C33.9234 18.276 33 19.1995 33 20.3385V23.2031C33 24.3422 33.9234 25.2656 35.0625 25.2656C36.2016 25.2656 37.125 24.3422 37.125 23.2031V20.3385ZM37.125 31.7969C37.125 30.6578 36.2016 29.7344 35.0625 29.7344C33.9234 29.7344 33 30.6578 33 31.7969V34.6615C33 35.8005 33.9234 36.724 35.0625 36.724C36.2016 36.724 37.125 35.8005 37.125 34.6615V31.7969Z" fill="#EBFAFF"/>
</svg>
